# xmcd CD database file
#
# Track frame offsets:
#	150
#	9552
#	24040
#	38050
#	53737
#	76212
#	93927
#	107447
#	121685
#	136225
#	153602
#	168942
#	188137
#	199892
#	213220
#
# Disc length: 3049 seconds
#
# Revision: 0
# Processed by: cddbd v1.5.1PL0 Copyright (c) Steve Scherf et al.
# Submitted via: CDex 1.51
#
DISCID=ad0be70f
DTITLE=Jill Palmer - Wings To Fly
DYEAR=2001
DGENRE=Jazz
TTITLE0=call of the loons (wonder lake)
TTITLE1=inside passage
TTITLE2=summer's end
TTITLE3=sunflower gate
TTITLE4=triumph of the spirit
TTITLE5=beyond imagination
TTITLE6=adam's song
TTITLE7=her smiling eyes
TTITLE8=sight of you
TTITLE9=through the clouds
TTITLE10=first steps
TTITLE11=leo's lullaby
TTITLE12=wings to fly
TTITLE13=only love
TTITLE14=with eagles (wallaby ranch)
EXTD=YEAR: 2001
EXTT0=
EXTT1=
EXTT2=
EXTT3=
EXTT4=
EXTT5=
EXTT6=
EXTT7=
EXTT8=
EXTT9=
EXTT10=
EXTT11=
EXTT12=
EXTT13=
EXTT14=
PLAYORDER=
